<svg xmlns="http://www.w3.org/2000/svg" version="1.1" xmlns:xlink="http://www.w3.org/1999/xlink" xmlns:svgjs="http://svgjs.dev/svgjs" width="187" height="80" viewBox="0 0 1500 647"><g transform="matrix(1,0,0,1,-0.9090909090909918,-0.7431481952784793)"><svg viewBox="0 0 396 171" data-background-color="#619784" preserveAspectRatio="xMidYMid meet" height="647" width="1500" xmlns="http://www.w3.org/2000/svg" xmlns:xlink="http://www.w3.org/1999/xlink"><g id="tight-bounds" transform="matrix(1,0,0,1,0.2400000000000091,0.19641165593913001)"><svg viewBox="0 0 395.52 170.60717668812174" height="170.60717668812174" width="395.52"><g><svg viewBox="0 0 680.2505806413894 293.4254424648132" height="170.60717668812174" width="395.52"><g transform="matrix(1,0,0,1,284.73058064138945,61.36050279133367)"><svg viewBox="0 0 395.52 170.70443688214587" height="170.70443688214587" width="395.52"><g id="textblocktransform"><svg viewBox="0 0 395.52 170.70443688214587" height="170.70443688214587" width="395.52" id="textblock"><g><svg viewBox="0 0 395.52 170.70443688214587" height="170.70443688214587" width="395.52"><g transform="matrix(1,0,0,1,0,0)"><svg width="395.52" viewBox="-0.8 -36.8 85.26513457758807 36.8" height="170.70443688214587" data-palette-color="#003e29"><g transform="matrix(1,0,0,1,0,0)"><g><svg width="11.168094577588088" viewBox="2.52 -36.86 72 37.36" height="5.794740071823758" data-palette-color="#003e29" id="scriptelement" x="70.98404728879405" y="-10.794410035911877"><path d="M36.58-18.18L36.58-18.18Q36.58-12.23 34.33-8.06 32.08-3.89 28.22-1.7 24.36 0.5 19.55 0.5L19.55 0.5Q14.7 0.5 10.85-1.7 7-3.91 4.76-8.08 2.52-12.25 2.52-18.18L2.52-18.18Q2.52-24.13 4.76-28.3 7-32.48 10.85-34.67 14.7-36.86 19.55-36.86L19.55-36.86Q24.36-36.86 28.22-34.67 32.08-32.48 34.33-28.3 36.58-24.13 36.58-18.18ZM28.78-18.18L28.78-18.18Q28.78-22.03 27.64-24.68 26.49-27.33 24.41-28.69 22.34-30.06 19.55-30.06L19.55-30.06Q16.76-30.06 14.68-28.69 12.61-27.33 11.46-24.68 10.32-22.03 10.32-18.18L10.32-18.18Q10.32-14.33 11.46-11.68 12.61-9.04 14.68-7.67 16.76-6.3 19.55-6.3L19.55-6.3Q22.34-6.3 24.41-7.67 26.49-9.04 27.64-11.68 28.78-14.33 28.78-18.18ZM74.18-24.61L66.37-24.61Q66-25.91 65.32-26.91 64.65-27.91 63.68-28.61 62.71-29.31 61.48-29.69 60.24-30.06 58.75-30.06L58.75-30.06Q55.96-30.06 53.86-28.68 51.76-27.29 50.58-24.65 49.41-22.02 49.41-18.22L49.41-18.22Q49.41-14.42 50.57-11.75 51.72-9.09 53.83-7.7 55.95-6.3 58.82-6.3L58.82-6.3Q61.43-6.3 63.29-7.24 65.14-8.17 66.13-9.87 67.11-11.58 67.11-13.9L67.11-13.9 68.68-13.67 59.3-13.67 59.3-19.46 74.52-19.46 74.52-14.88Q74.52-10.09 72.49-6.65 70.47-3.21 66.92-1.36 63.37 0.5 58.79 0.5L58.79 0.5Q53.67 0.5 49.8-1.77 45.93-4.03 43.77-8.21 41.62-12.39 41.62-18.15L41.62-18.15Q41.62-22.57 42.9-26.04 44.19-29.51 46.52-31.92 48.84-34.34 51.93-35.6 55.02-36.86 58.63-36.86L58.63-36.86Q61.72-36.86 64.38-35.96 67.04-35.07 69.11-33.43 71.18-31.8 72.49-29.55 73.81-27.31 74.18-24.61L74.18-24.61Z" opacity="1" transform="matrix(1,0,0,1,0,0)" fill="#003e29" class="undefined-123" data-fill-palette-color="primary" id="tk-123"></path></svg></g></g><path d="M68.671-7.897C68.671-12.258 72.207-15.794 76.568-15.794 80.93-15.794 84.465-12.258 84.465-7.897 84.465-3.536 80.93 0 76.568 0 72.207 0 68.671-3.536 68.671-7.897ZM76.568-0.4C80.709-0.4 84.065-3.757 84.065-7.897 84.065-12.038 80.709-15.394 76.568-15.394 72.428-15.394 69.071-12.038 69.071-7.897 69.071-3.757 72.428-0.4 76.568-0.4Z" fill="#003e29" id="scriptcircle" data-fill-palette-color="primary"></path><path d="M16.8-36.8L17.35-36.8 35.05 0 28.6 0 25.45-7.2 8.6-7.2 5.45 0-0.8 0 16.8-36.8ZM17.05-26.15L14.85-21.15 10.85-12.25 23.25-12.25 19.3-21.1 17.15-26.15 17.05-26.15ZM47.7 0L30.7-36.75 37.05-36.75 48.05-11.5 59.1-36.75 65.4-36.75 48.45 0 47.7 0Z" opacity="1" transform="matrix(1,0,0,1,0,0)" fill="#003e29" class="wordmark-text-0" data-fill-palette-color="primary" id="text-0"></path></svg></g></svg></g></svg></g></svg></g><g><svg viewBox="0 0 244.43135999999998 293.4254424648132" height="293.4254424648132" width="244.43135999999998"><g><svg xmlns="http://www.w3.org/2000/svg" xml:space="preserve" viewBox="14.387419399993655 7.275000000000002 71.24464698219504 85.52499999999999" x="0" y="0" height="293.4254424648132" width="244.43135999999998" class="icon-icon-0" data-fill-palette-color="accent" id="icon-0"></svg></g></svg></g></svg></g><defs></defs><mask id="233296c4-902f-49db-9599-0b0a38a7dc2f"><g id="SvgjsG1251"><svg viewBox="0 0 395.52 170.60717668812174" height="170.60717668812174" width="395.52"><g><svg viewBox="0 0 680.2505806413894 293.4254424648132" height="170.60717668812174" width="395.52"><g transform="matrix(1,0,0,1,284.73058064138945,61.36050279133367)"><svg viewBox="0 0 395.52 170.70443688214587" height="170.70443688214587" width="395.52"><g id="SvgjsG1250"><svg viewBox="0 0 395.52 170.70443688214587" height="170.70443688214587" width="395.52" id="SvgjsSvg1249"><g><svg viewBox="0 0 395.52 170.70443688214587" height="170.70443688214587" width="395.52"><g transform="matrix(1,0,0,1,0,0)"><svg width="395.52" viewBox="-0.8 -36.8 85.26513457758807 36.8" height="170.70443688214587" data-palette-color="#003e29"><g transform="matrix(1,0,0,1,0,0)"><g><svg width="11.168094577588088" viewBox="2.52 -36.86 72 37.36" height="5.794740071823758" data-palette-color="#003e29" id="SvgjsSvg1248" x="70.98404728879405" y="-10.794410035911877"><path d="M36.58-18.18L36.58-18.18Q36.58-12.23 34.33-8.06 32.08-3.89 28.22-1.7 24.36 0.5 19.55 0.5L19.55 0.5Q14.7 0.5 10.85-1.7 7-3.91 4.76-8.08 2.52-12.25 2.52-18.18L2.52-18.18Q2.52-24.13 4.76-28.3 7-32.48 10.85-34.67 14.7-36.86 19.55-36.86L19.55-36.86Q24.36-36.86 28.22-34.67 32.08-32.48 34.33-28.3 36.58-24.13 36.58-18.18ZM28.78-18.18L28.78-18.18Q28.78-22.03 27.64-24.68 26.49-27.33 24.41-28.69 22.34-30.06 19.55-30.06L19.55-30.06Q16.76-30.06 14.68-28.69 12.61-27.33 11.46-24.68 10.32-22.03 10.32-18.18L10.32-18.18Q10.32-14.33 11.46-11.68 12.61-9.04 14.68-7.67 16.76-6.3 19.55-6.3L19.55-6.3Q22.34-6.3 24.41-7.67 26.49-9.04 27.64-11.68 28.78-14.33 28.78-18.18ZM74.18-24.61L66.37-24.61Q66-25.91 65.32-26.91 64.65-27.91 63.68-28.61 62.71-29.31 61.48-29.69 60.24-30.06 58.75-30.06L58.75-30.06Q55.96-30.06 53.86-28.68 51.76-27.29 50.58-24.65 49.41-22.02 49.41-18.22L49.41-18.22Q49.41-14.42 50.57-11.75 51.72-9.09 53.83-7.7 55.95-6.3 58.82-6.3L58.82-6.3Q61.43-6.3 63.29-7.24 65.14-8.17 66.13-9.87 67.11-11.58 67.11-13.9L67.11-13.9 68.68-13.67 59.3-13.67 59.3-19.46 74.52-19.46 74.52-14.88Q74.52-10.09 72.49-6.65 70.47-3.21 66.92-1.36 63.37 0.5 58.79 0.5L58.79 0.5Q53.67 0.5 49.8-1.77 45.93-4.03 43.77-8.21 41.62-12.39 41.62-18.15L41.62-18.15Q41.62-22.57 42.9-26.04 44.19-29.51 46.52-31.92 48.84-34.34 51.93-35.6 55.02-36.86 58.63-36.86L58.63-36.86Q61.72-36.86 64.38-35.96 67.04-35.07 69.11-33.43 71.18-31.8 72.49-29.55 73.81-27.31 74.18-24.61L74.18-24.61Z" opacity="1" transform="matrix(1,0,0,1,0,0)" fill="black" class="undefined-123" id="SvgjsPath1247"></path></svg></g></g><path d="M68.671-7.897C68.671-12.258 72.207-15.794 76.568-15.794 80.93-15.794 84.465-12.258 84.465-7.897 84.465-3.536 80.93 0 76.568 0 72.207 0 68.671-3.536 68.671-7.897ZM76.568-0.4C80.709-0.4 84.065-3.757 84.065-7.897 84.065-12.038 80.709-15.394 76.568-15.394 72.428-15.394 69.071-12.038 69.071-7.897 69.071-3.757 72.428-0.4 76.568-0.4Z" fill="black" id="SvgjsPath1246"></path><path d="M16.8-36.8L17.35-36.8 35.05 0 28.6 0 25.45-7.2 8.6-7.2 5.45 0-0.8 0 16.8-36.8ZM17.05-26.15L14.85-21.15 10.85-12.25 23.25-12.25 19.3-21.1 17.15-26.15 17.05-26.15ZM47.7 0L30.7-36.75 37.05-36.75 48.05-11.5 59.1-36.75 65.4-36.75 48.45 0 47.7 0Z" opacity="1" transform="matrix(1,0,0,1,0,0)" fill="black" class="wordmark-text-0" id="SvgjsPath1245"></path></svg></g></svg></g></svg></g></svg></g><g><svg viewBox="0 0 244.43135999999998 293.4254424648132" height="293.4254424648132" width="244.43135999999998"><g><svg xmlns="http://www.w3.org/2000/svg" xml:space="preserve" viewBox="14.387419399993655 7.275000000000002 71.24464698219504 85.52499999999999" x="0" y="0" height="293.4254424648132" width="244.43135999999998" class="icon-icon-0" data-fill-palette-color="accent" id="SvgjsSvg1244"><path d="M85.6 52.5V21c0-1.1-0.5-2.1-1.4-2.9s-2-1.1-3.1-1c-1.5 0.2-3.2 0.3-4.7 0.3-14.3 0-23.6-8.9-23.7-9-1.5-1.5-3.9-1.5-5.4 0 0 0.1-9.2 9-23.7 9-1.5 0-3.2-0.1-4.7-0.3-1.2-0.1-2.2 0.2-3.1 1s-1.4 1.7-1.4 2.9v31.5c-0.1 2.6-0.4 26 34.2 40q0.75 0.3 1.5 0.3c0.75 0 1-0.1 1.5-0.3 34.5-14.1 34.2-37.4 34-40M72.8 70.9c0 5.5-5.2 10-11.6 10H38.8c-6.4 0-11.6-4.5-11.6-10v-28c0-4.7 3.7-8.6 8.8-9.7v-6.1c0-7.7 6.3-14 14-14s14 6.3 14 14v6.1c5 1.1 8.8 5 8.8 9.7z" fill="white"></path><path d="M59.8 27.1c0-5.4-4.4-9.8-9.8-9.8s-9.8 4.4-9.8 9.8v5.8h19.7v-5.8zM40.9 53.9L35.2 51v-4.3l-2.3-2.8c-0.2-0.3-0.7-0.3-1-0.1s-0.3 0.7-0.1 1l2 2.4v4.6l7.1 3.6V60h-8.6c-0.4 0-0.7 0.3-0.7 0.7s0.3 0.7 0.7 0.7h8.6v2.5c0 0.7 0.1 1.4 0.2 2l-6.4 2.8V74l-1.4 0.6c-0.4 0.2-0.5 0.6-0.4 0.9s0.4 0.4 0.6 0.4c0.1 0 0.2 0 0.3-0.1l2.3-1v-5.3l5.4-2.4c1.3 3.2 4.3 5.4 7.9 5.6v-22h-8.6v3.2z" fill="white"></path><path d="M37.8 39.8l5.9 0.7 0.9 1.2 1.2 3.4c-0.4 0.5-0.6 1.2-0.6 1.9 0 1.7 1.2 3 2.6 3h4c1.5 0 2.6-1.4 2.6-3 0-0.8-0.3-1.6-0.8-2.1l1.1-3.1 0.9-1.2 5.9-0.7c0.4 0 0.7-0.4 0.6-0.8 0-0.4-0.4-0.7-0.8-0.6l-6.4 0.8-1.4 1.8-1.1 3c0-0.1-0.2-0.1-0.5-0.1h-4c-0.3 0-0.6 0.1-0.9 0.2L45.8 41l-1.4-1.8-6.4-0.8c-0.4 0-0.7 0.2-0.8 0.6s0.2 0.7 0.6 0.8" fill="white"></path><path d="M67.7 60.1h-8.8v-4.4l7.3-3.7v-4.6l2-2.4c0.2-0.3 0.2-0.7-0.1-1-0.3-0.2-0.7-0.2-1 0.1l-2.3 2.8v4.3l-6 3v-3.4h-8.6v22.1c3.6-0.1 6.6-2.4 7.9-5.6l5.6 2.5v5.3l2.3 1c0.1 0 0.2 0.1 0.3 0.1 0.3 0 0.5-0.2 0.6-0.4 0.2-0.4 0-0.8-0.4-0.9l-1.3-0.9v-5.3l-6.6-2.9c0.2-0.7 0.2-1.3 0.2-2v-2.4h8.8c0.4 0 0.7-0.3 0.7-0.7s-0.2-0.6-0.6-0.6" fill="white"></path></svg></g></svg></g></svg></g><defs><mask></mask></defs></svg><rect width="395.52" height="170.60717668812174" fill="black" stroke="none" visibility="hidden"></rect></g></mask><linearGradient x1="0.054" x2="0.941" y1="0.5" y2="0.5" id="5a2a198e-4b66-4695-8e9c-d66a7b0c38c1"><stop stop-color="#9c7945" offset="0"></stop><stop stop-color="#faf3aa" offset="0.498"></stop><stop stop-color="#9c7945" offset="1"></stop></linearGradient><rect width="395.52" height="170.60717668812174" fill="url(#5a2a198e-4b66-4695-8e9c-d66a7b0c38c1)" mask="url(#233296c4-902f-49db-9599-0b0a38a7dc2f)" data-fill-palette-color="accent"></rect></svg><rect width="395.52" height="170.60717668812174" fill="none" stroke="none" visibility="hidden"></rect></g></svg></g></svg>