<svg id="SvgjsSvg1001" width="288" height="288" xmlns="http://www.w3.org/2000/svg" version="1.1" xmlns:xlink="http://www.w3.org/1999/xlink" xmlns:svgjs="http://svgjs.com/svgjs"><defs id="SvgjsDefs1002"></defs><g id="SvgjsG1008"><svg xmlns="http://www.w3.org/2000/svg" enable-background="new 0 0 128 128" viewBox="0 0 128 128" width="288" height="288"><path fill="#003e29" d="M65.8,84.9c1.2,2.1,3,3.8,5,5c1.2,0.7,2.5,1.3,3.9,1.6c1.1,0.3,2.3,0.4,3.6,0.4c1.2,0,2.4-0.2,3.6-0.4
				c1.4-0.3,2.7-0.9,3.9-1.6c2.1-1.2,3.8-3,5-5c0.7-1.2,1.3-2.5,1.6-3.9c0.3-1.1,0.4-2.3,0.4-3.6c0-1.2-0.2-2.4-0.4-3.6
				c-0.3-1.4-0.9-2.7-1.6-3.9c-1.2-2.1-3-3.8-5-5c-1.2-0.7-2.5-1.3-3.9-1.6c-1.1-0.3-2.3-0.4-3.6-0.4c-1.2,0-2.4,0.2-3.6,0.4
				c-1.4,0.3-2.7,0.9-3.9,1.6c-2.1,1.2-3.8,3-5,5c-0.7,1.2-1.3,2.5-1.6,3.9c-0.3,1.1-0.4,2.3-0.4,3.6c0,1.2,0.2,2.4,0.4,3.6
				C64.5,82.4,65.1,83.7,65.8,84.9z" class="color373737 svgShape"></path><path fill="#003e29" d="M119.6,71h-2.9c-1-5.9-3.3-11.4-6.7-16.1l2-2c2.5-2.5,2.5-6.6,0-9.2c-2.5-2.5-6.7-2.5-9.2,0l-2,2
				C96.2,42.3,90.7,40,84.8,39v-2.9c0-3.6-2.9-6.5-6.5-6.5c-1.9,0-3.6,0.8-4.8,2.2c0.8,1.4,1.2,3,1.2,4.7c0,4.6-3.3,8.5-7.6,9.5
				c-0.6,2.1-1.4,4.1-2.5,5.9c0.5,0.7,0.8,1.5,1.1,2.3c1.9-1,4-1.9,6.1-2.4c2.1-0.5,4.3-0.8,6.5-0.8s4.4,0.3,6.5,0.8
				c2.5,0.6,4.9,1.6,7,2.9c3.8,2.2,6.9,5.4,9.2,9.2c1.3,2.2,2.3,4.5,2.9,7c0.5,2.1,0.8,4.3,0.8,6.5c0,2.2-0.3,4.4-0.8,6.5
				c-0.6,2.5-1.6,4.9-2.9,7c-2.2,3.8-5.4,6.9-9.2,9.2c-2.2,1.3-4.5,2.3-7,2.9c-2.1,0.5-4.3,0.8-6.5,0.8s-4.4-0.3-6.5-0.8
				c-2.5-0.6-4.9-1.6-7-2.9c-3.8-2.2-6.9-5.4-9.2-9.2c-1.3-2.2-2.3-4.5-2.9-7c-0.5-2.1-0.8-4.3-0.8-6.5c0-2.2,0.3-4.4,0.8-6.5
				c0.4-1.5,0.9-3,1.5-4.4c-1.1-0.3-2.1-0.7-3-1.3c-1.9,1-3.9,1.8-5.9,2.5c-0.9,4.4-4.8,7.6-9.5,7.6c-1.6,0-3.1-0.4-4.5-1.1
				c-0.5,0.9-0.8,2-0.8,3.1c0,3.6,2.9,6.5,6.5,6.5h2.9c1,5.9,3.3,11.4,6.7,16.1l-2,2c-2.5,2.5-2.5,6.6,0,9.2
				c1.3,1.3,2.9,1.9,4.6,1.9c1.7,0,3.3-0.6,4.6-1.9l2-2c4.7,3.3,10.2,5.7,16.1,6.7v2.9c0,3.6,2.9,6.5,6.5,6.5c3.6,0,6.5-2.9,6.5-6.5
				v-2.9c5.9-1,11.4-3.3,16.1-6.7l2,2c1.3,1.3,2.9,1.9,4.6,1.9c1.7,0,3.3-0.6,4.6-1.9c2.5-2.5,2.5-6.7,0-9.2l-2-2
				c3.3-4.7,5.7-10.2,6.7-16.1h2.9c3.6,0,6.5-2.9,6.5-6.5C126.1,73.9,123.2,71,119.6,71z" class="color373737 svgShape"></path><path fill="#003e29" d="M31.1,65.7c0,2.5,2.1,4.6,4.6,4.6c2.5,0,4.6-2.1,4.6-4.6v-2c4.2-0.7,8.1-2.3,11.4-4.7l1.4,1.4
					c0.9,0.9,2.1,1.3,3.2,1.3c1.2,0,2.3-0.4,3.2-1.3c1.8-1.8,1.8-4.7,0-6.5l-1.4-1.4c2.4-3.3,4-7.2,4.7-11.4h2
					c2.5,0,4.6-2.1,4.6-4.6c0-2.5-2.1-4.6-4.6-4.6h-2c-0.7-4.2-2.4-8.1-4.7-11.4l1.4-1.4c1.8-1.8,1.8-4.7,0-6.5
					c-1.8-1.8-4.7-1.8-6.5,0L51.7,14c-3.3-2.4-7.2-4-11.4-4.7v-2c0-2.5-2.1-4.6-4.6-4.6c-2.5,0-4.6,2.1-4.6,4.6v2
					C27,10,23.1,11.7,19.8,14l-1.4-1.4c-1.8-1.8-4.7-1.8-6.5,0c-1.8,1.8-1.8,4.7,0,6.5l1.4,1.4c-2.4,3.3-4,7.2-4.7,11.4h-2
					c-2.5,0-4.6,2.1-4.6,4.6c0,2.5,2.1,4.6,4.6,4.6h2c0.7,4.2,2.3,8.1,4.7,11.4l-1.4,1.4c-1.8,1.8-1.8,4.7,0,6.5
					c0.9,0.9,2.1,1.3,3.2,1.3c1.2,0,2.4-0.4,3.2-1.3l1.4-1.4c3.3,2.4,7.2,4,11.4,4.7V65.7z M28.1,49.3c-2.1-1.3-3.9-3-5.2-5.2
					c-0.7-1.2-1.3-2.5-1.6-4c-0.3-1.2-0.5-2.4-0.5-3.6c0-1.3,0.2-2.5,0.5-3.6c0.4-1.4,0.9-2.7,1.6-4c1.3-2.1,3-3.9,5.2-5.2
					c1.2-0.7,2.5-1.3,4-1.6c1.2-0.3,2.4-0.5,3.6-0.5c1.3,0,2.5,0.2,3.6,0.5c1.4,0.4,2.7,0.9,4,1.6c2.1,1.3,3.9,3,5.2,5.2
					c0.7,1.2,1.3,2.5,1.6,4c0.3,1.2,0.5,2.4,0.5,3.6c0,1.3-0.2,2.5-0.5,3.6c-0.4,1.4-0.9,2.7-1.6,4c-1.3,2.1-3,3.9-5.2,5.2
					c-1.2,0.7-2.5,1.3-4,1.6c-1.2,0.3-2.4,0.5-3.6,0.5c-1.3,0-2.5-0.2-3.6-0.5C30.7,50.6,29.4,50,28.1,49.3z" class="color373737 svgShape"></path></svg></g></svg>